<?xml version="1.0" standalone="no"?>
<!DOCTYPE svg PUBLIC "-//W3C//DTD SVG 20010904//EN"
 "http://www.w3.org/TR/2001/REC-SVG-20010904/DTD/svg10.dtd">
<svg version="1.0" xmlns="http://www.w3.org/2000/svg"
 width="1000.000000pt" height="1000.000000pt" viewBox="0 0 1000.000000 1000.000000"
 preserveAspectRatio="xMidYMid meet">
<metadata>
Created by potrace 1.11, written by Peter Selinger 2001-2013
</metadata>
<g transform="translate(0.000000,1000.000000) scale(0.100000,-0.100000)"
fill="#000000" stroke="none">
<path d="M23 9288 c14 -24 57 -99 97 -168 39 -69 82 -143 95 -165 12 -22 51
-90 87 -151 36 -61 68 -117 71 -125 4 -8 21 -36 37 -64 17 -27 36 -61 43 -75
6 -14 14 -27 18 -30 3 -3 19 -30 35 -60 16 -30 31 -57 34 -60 5 -5 93 -156
122 -211 8 -13 26 -43 41 -66 15 -24 27 -45 27 -47 0 -7 98 -175 121 -208 10
-15 19 -34 19 -42 0 -8 4 -16 8 -18 7 -3 40 -57 122 -203 13 -22 31 -53 41
-70 11 -16 22 -37 26 -45 4 -8 24 -43 45 -78 21 -34 38 -65 38 -68 0 -3 16
-30 35 -60 19 -30 35 -56 35 -58 0 -2 27 -50 60 -105 33 -56 60 -104 60 -107
0 -3 8 -18 19 -32 10 -15 29 -47 43 -72 14 -25 48 -85 77 -133 28 -49 51 -93
51 -98 0 -5 5 -9 10 -9 6 0 10 -4 10 -10 0 -7 138 -251 170 -300 5 -8 18 -31
28 -50 10 -19 40 -70 65 -113 26 -43 47 -80 47 -83 0 -2 15 -27 33 -56 19 -29
44 -74 57 -100 13 -27 27 -48 32 -48 4 0 8 -5 8 -11 0 -6 9 -24 21 -40 11 -16
17 -29 13 -29 -4 0 0 -8 8 -17 8 -10 41 -64 73 -121 31 -56 61 -105 66 -108 5
-3 7 -10 4 -15 -4 -5 -1 -9 4 -9 6 0 11 -4 11 -9 0 -4 30 -60 67 -122 100
-172 112 -193 119 -209 4 -8 12 -22 19 -30 7 -8 26 -40 42 -70 51 -93 85 -153
110 -192 12 -21 23 -42 23 -48 0 -5 5 -10 10 -10 6 0 10 -4 10 -10 0 -5 20
-44 45 -86 25 -41 45 -77 45 -78 0 -2 37 -66 81 -142 45 -76 93 -159 107 -184
14 -25 35 -61 47 -80 12 -19 33 -55 47 -80 14 -25 75 -132 136 -238 62 -107
112 -198 112 -203 0 -5 4 -9 9 -9 5 0 11 -8 14 -17 3 -10 20 -40 36 -68 17
-27 34 -57 38 -65 3 -8 9 -17 12 -20 3 -3 14 -21 25 -40 35 -67 79 -145 86
-155 4 -5 17 -26 28 -45 10 -19 113 -197 227 -395 380 -656 468 -810 484 -840
9 -16 22 -35 29 -43 6 -7 12 -18 12 -23 0 -5 16 -33 35 -64 20 -30 38 -63 42
-73 3 -9 12 -24 18 -32 7 -8 27 -42 45 -75 32 -58 200 -349 280 -485 69 -117
90 -155 108 -190 9 -19 20 -36 24 -38 5 -2 8 -10 8 -18 0 -8 3 -14 8 -14 4 0
12 -10 17 -23 18 -37 60 -112 66 -117 3 -3 14 -20 23 -39 10 -18 40 -71 68
-118 56 -95 50 -96 104 7 16 30 31 57 34 60 5 5 16 24 57 99 14 25 29 51 33
56 5 6 23 37 40 70 18 33 38 67 44 75 11 15 21 32 57 98 11 20 28 51 38 67 10
17 29 51 43 76 14 25 44 76 67 113 22 38 41 70 41 72 0 2 20 37 44 77 24 39
56 95 72 122 15 28 141 247 281 488 139 241 253 443 253 448 0 5 5 9 10 9 6 0
10 4 10 9 0 5 23 47 50 94 28 47 50 90 50 96 0 6 3 11 8 11 4 0 12 10 18 23 6
12 51 92 101 179 l91 156 -64 111 c-35 60 -64 115 -64 120 0 6 -4 11 -10 11
-5 0 -10 5 -10 11 0 6 -13 30 -30 54 -16 24 -30 46 -30 50 0 3 -39 72 -86 153
-47 81 -86 154 -87 162 0 8 24 58 55 110 137 233 268 462 268 471 0 5 4 9 9 9
5 0 11 8 14 18 3 9 19 40 36 67 16 28 36 61 44 75 7 14 26 48 42 75 15 28 31
55 35 60 4 6 17 26 27 45 11 19 88 153 172 298 83 145 151 268 151 273 0 5 4
9 10 9 5 0 12 11 16 25 3 14 10 25 15 25 5 0 9 4 9 9 0 7 53 102 151 269 9 15
27 47 41 72 41 73 157 274 168 290 6 8 13 22 17 30 4 8 24 43 45 78 21 34 38
67 38 72 0 6 4 10 8 10 4 0 13 12 19 28 7 15 27 52 45 82 67 113 194 333 227
393 18 34 36 64 40 67 3 3 14 21 25 40 16 30 219 385 246 430 36 60 130 222
130 225 0 1 36 64 80 139 44 76 80 139 80 142 0 3 8 13 17 22 15 15 54 17 397
17 l381 0 37 55 c20 30 37 59 37 63 1 5 21 42 46 83 25 40 45 78 45 84 0 5 4
10 9 10 5 0 11 8 14 18 3 9 19 38 34 64 49 83 238 413 242 423 2 6 7 12 10 15
6 5 49 81 66 117 5 13 13 23 18 23 4 0 7 5 7 10 0 6 11 27 23 48 13 20 35 57
49 82 22 40 42 75 111 193 11 18 32 56 49 85 l29 52 -5001 0 -5001 0 24 -42z
m2816 -218 l2352 0 -18 -33 c-10 -17 -20 -34 -23 -37 -5 -5 -33 -55 -58 -105
-9 -16 -18 -32 -21 -35 -3 -3 -13 -18 -21 -35 -8 -16 -18 -32 -21 -35 -3 -3
-23 -36 -44 -75 -21 -38 -60 -106 -86 -151 -27 -44 -61 -103 -76 -131 -16 -27
-56 -99 -91 -159 l-63 -109 -1324 0 -1323 1 9 -23 c4 -12 20 -40 34 -62 14
-22 25 -42 25 -45 0 -2 18 -34 40 -70 22 -36 40 -70 40 -76 0 -5 5 -10 10 -10
6 0 10 -5 10 -10 0 -9 127 -235 168 -300 9 -14 17 -27 17 -30 0 -3 19 -36 42
-75 60 -103 191 -332 226 -395 17 -30 34 -58 39 -61 5 -3 571 -5 1259 -5 687
1 1249 0 1249 -1 0 -1 -23 -42 -125 -218 -31 -55 -66 -116 -77 -135 -24 -41
-188 -325 -265 -457 -53 -90 -55 -93 -91 -94 -20 0 -349 0 -729 0 -381 -1
-693 -4 -693 -8 0 -4 20 -40 45 -80 25 -40 45 -75 45 -79 0 -3 13 -26 28 -51
45 -73 97 -162 123 -211 13 -25 26 -47 29 -50 11 -10 170 -292 170 -301 0 -5
5 -9 10 -9 6 0 10 -5 10 -10 0 -6 16 -36 35 -66 19 -30 36 -57 36 -62 1 -4 12
-23 24 -42 12 -19 25 -42 28 -50 4 -8 15 -28 26 -45 10 -16 27 -46 38 -65 11
-19 94 -161 183 -315 89 -154 171 -296 182 -315 11 -19 28 -48 38 -65 10 -16
27 -46 38 -65 11 -19 83 -145 161 -279 77 -134 141 -248 141 -253 0 -4 5 -8
11 -8 5 0 8 -4 5 -9 -4 -5 -3 -11 2 -13 10 -4 92 -146 92 -159 0 -5 5 -9 10
-9 6 0 10 -4 10 -10 0 -5 38 -74 85 -154 47 -80 85 -150 85 -156 0 -5 4 -10
10 -10 5 0 12 -11 16 -25 3 -14 10 -25 15 -25 5 0 9 -5 9 -10 0 -6 18 -40 40
-76 22 -36 40 -67 40 -69 0 -2 28 -50 62 -107 33 -57 71 -122 83 -145 12 -23
26 -48 32 -55 10 -13 55 -91 80 -140 8 -15 19 -30 24 -33 5 -4 7 -11 4 -16 -4
-5 -3 -9 2 -9 4 0 19 -21 33 -47 13 -27 27 -50 30 -53 3 -3 11 -16 19 -29 7
-14 38 -68 68 -122 l55 -97 -24 -44 c-13 -23 -25 -45 -28 -48 -3 -3 -17 -26
-30 -52 -14 -27 -29 -48 -33 -48 -5 0 -5 -4 -2 -10 3 -5 2 -10 -2 -10 -5 0
-14 -12 -20 -28 -7 -15 -23 -45 -37 -67 -14 -22 -29 -46 -32 -54 -4 -7 -51
-90 -106 -183 -54 -93 -98 -172 -98 -175 0 -4 -6 -14 -14 -22 -7 -9 -24 -36
-37 -61 -13 -25 -32 -56 -41 -70 -17 -24 -18 -24 -33 -5 -8 11 -15 24 -15 28
0 5 -8 21 -18 35 -11 15 -32 52 -49 82 -16 30 -53 94 -81 142 -29 48 -52 90
-52 94 0 4 -6 15 -14 23 -8 9 -27 41 -44 71 -16 30 -69 123 -117 205 -48 83
-99 170 -113 195 -14 25 -36 62 -49 82 -12 21 -23 40 -23 42 0 2 -21 40 -46
83 -44 73 -170 291 -212 365 -11 18 -52 89 -92 158 -40 69 -84 145 -98 170
-23 42 -152 266 -172 300 -14 23 -164 282 -295 510 -65 113 -126 219 -136 235
-10 17 -39 66 -64 110 -25 44 -50 87 -55 95 -11 18 -180 311 -208 360 -38 68
-95 165 -110 190 -9 14 -17 27 -17 30 0 3 -26 48 -56 100 -31 52 -64 109 -73
125 -9 17 -25 44 -35 60 -23 39 -56 96 -105 182 -70 122 -287 498 -296 513
-16 25 -65 112 -100 175 -18 33 -39 67 -46 76 -8 8 -14 18 -14 21 0 4 -27 51
-59 106 -32 55 -72 124 -89 154 -16 29 -77 136 -136 236 -58 101 -106 186
-106 188 0 3 -5 10 -10 17 -12 14 -74 117 -79 132 -4 10 -33 60 -58 100 -7 11
-21 36 -31 55 -11 19 -117 204 -237 410 -119 206 -227 394 -240 417 -13 22
-35 59 -49 82 -14 22 -26 43 -26 45 0 3 -13 26 -29 53 -16 26 -105 179 -197
338 -92 160 -175 304 -185 320 -10 17 -25 44 -33 60 -9 17 -29 53 -45 80 -73
120 -112 196 -106 205 4 6 10 8 15 5 4 -3 1066 -5 2359 -5z m6666 -76 c-25
-42 -45 -80 -45 -85 0 -5 -4 -9 -10 -9 -5 0 -10 -4 -10 -10 0 -5 -23 -48 -50
-96 -28 -48 -50 -91 -50 -95 0 -5 -4 -9 -9 -9 -5 0 -14 -12 -20 -27 -6 -16
-31 -62 -56 -103 -25 -41 -52 -88 -61 -105 -8 -16 -23 -43 -34 -60 -10 -16
-31 -52 -46 -80 -15 -27 -41 -72 -59 -100 l-32 -50 -382 0 c-210 1 -385 -2
-389 -5 -5 -3 -29 -43 -55 -90 -26 -47 -52 -92 -57 -100 -22 -33 -130 -222
-130 -226 0 -2 -11 -23 -26 -45 -26 -42 -28 -46 -116 -199 -192 -334 -375
-650 -395 -682 -12 -21 -23 -40 -23 -43 0 -3 -11 -24 -26 -46 -14 -22 -34 -56
-45 -75 -33 -59 -55 -96 -123 -213 -36 -62 -66 -118 -66 -122 0 -5 -4 -9 -10
-9 -5 0 -10 -4 -10 -10 0 -13 -133 -244 -142 -248 -5 -2 -8 -8 -8 -14 0 -6
-22 -47 -50 -93 -27 -46 -50 -86 -50 -89 0 -4 -8 -19 -19 -34 -10 -15 -37 -61
-61 -102 -24 -41 -51 -87 -61 -102 -11 -15 -19 -34 -19 -42 0 -8 -4 -16 -9
-18 -4 -1 -25 -34 -46 -73 -21 -38 -41 -72 -44 -75 -3 -3 -15 -23 -26 -45 -11
-22 -22 -42 -26 -45 -3 -3 -19 -30 -36 -60 -16 -30 -55 -99 -86 -154 -32 -54
-57 -102 -57 -107 0 -5 -4 -9 -10 -9 -5 0 -12 -11 -16 -25 -3 -14 -9 -25 -13
-25 -3 0 -17 -23 -30 -50 -14 -28 -29 -50 -33 -50 -4 0 -7 -3 -6 -7 3 -13 -24
-63 -34 -63 -4 0 -8 -5 -8 -10 0 -12 -10 -30 -238 -424 -89 -153 -162 -282
-162 -287 0 -5 -4 -9 -8 -9 -4 0 -13 -12 -19 -27 -6 -16 -19 -40 -29 -54 -17
-26 -16 -28 17 -85 18 -33 32 -61 30 -63 -1 -2 1 -7 7 -10 5 -3 25 -35 46 -71
20 -36 41 -72 46 -80 37 -60 180 -312 180 -316 0 -3 9 -17 20 -31 11 -14 20
-32 20 -40 0 -7 -43 -89 -96 -181 -53 -92 -108 -187 -122 -212 -14 -25 -41
-72 -61 -105 -20 -33 -47 -81 -61 -107 -14 -27 -28 -48 -32 -48 -5 0 -8 -4 -8
-10 0 -5 -24 -50 -52 -100 -29 -50 -58 -99 -64 -110 -6 -11 -13 -23 -16 -26
-3 -3 -30 37 -59 88 -30 51 -59 102 -66 113 -7 11 -17 29 -22 40 -6 11 -22 38
-35 60 -14 22 -31 51 -39 65 -26 48 -70 125 -86 152 -36 60 -160 275 -179 308
-10 19 -59 103 -107 185 -48 83 -97 168 -110 190 -12 22 -63 111 -114 198 -50
86 -91 161 -91 167 0 5 8 24 18 42 29 52 132 229 159 273 13 22 26 48 30 58 3
9 9 17 14 17 5 0 9 5 9 10 0 6 40 79 89 163 90 155 262 453 298 517 11 19 37
63 57 97 20 34 36 66 36 72 0 6 5 11 10 11 6 0 10 7 10 15 0 8 4 15 8 15 4 0
13 12 19 28 7 15 24 47 39 72 14 25 59 101 99 170 40 69 82 141 94 160 11 19
25 44 31 55 5 11 23 43 39 70 16 28 50 86 75 130 26 44 58 100 72 125 15 25
56 97 93 160 36 63 69 117 73 118 5 2 8 8 8 12 0 7 93 174 151 270 5 8 50 87
100 175 50 88 102 177 115 197 13 21 24 40 24 42 0 3 34 62 75 131 41 70 75
128 75 130 0 2 19 36 43 77 118 198 237 409 237 417 0 5 3 11 8 13 4 2 41 62
81 133 41 72 90 156 109 188 19 31 32 61 28 65 -4 4 -497 8 -1094 8 -598 1
-1097 2 -1110 3 l-23 1 19 28 c11 15 31 48 44 72 14 25 48 85 76 134 29 49 52
93 52 97 0 5 5 9 10 9 6 0 10 4 10 8 0 10 114 211 130 229 5 7 10 15 10 18 0
4 23 44 50 91 28 47 50 89 50 94 0 6 4 10 8 10 5 0 14 16 22 35 8 19 17 35 21
35 4 0 9 9 12 20 5 20 17 20 2036 20 l2031 0 -45 -76z m-2755 -1095 c0 -4 -70
-130 -100 -179 -10 -16 -122 -210 -164 -283 -13 -23 -45 -80 -72 -127 -27 -47
-54 -91 -61 -98 -7 -7 -13 -17 -13 -21 0 -5 -23 -48 -52 -97 -28 -49 -56 -99
-62 -111 -6 -13 -14 -23 -18 -23 -5 0 -8 -9 -8 -19 0 -11 -4 -21 -9 -23 -7 -3
-61 -94 -85 -145 -6 -13 -14 -23 -18 -23 -5 0 -8 -4 -8 -10 0 -8 -65 -126
-100 -180 -27 -44 -110 -194 -110 -201 0 -4 -3 -9 -8 -11 -6 -3 -57 -87 -122
-204 -10 -17 -24 -42 -32 -55 -7 -13 -15 -26 -18 -29 -3 -3 -13 -21 -24 -40
-50 -93 -81 -147 -96 -170 -9 -14 -20 -32 -23 -40 -4 -8 -18 -33 -32 -55 -13
-22 -29 -49 -35 -60 -5 -11 -22 -41 -37 -67 -52 -87 -136 -233 -157 -273 -11
-22 -24 -42 -27 -45 -3 -3 -47 -79 -99 -170 -52 -91 -97 -167 -100 -170 -3 -3
-13 -21 -24 -40 -22 -42 -28 -51 -171 -300 -61 -107 -124 -214 -138 -237 -15
-24 -27 -45 -27 -48 0 -11 -85 -145 -92 -145 -4 0 -15 15 -23 33 -18 37 -44
82 -86 152 -17 28 -35 62 -42 78 -6 15 -15 27 -19 27 -4 0 -8 7 -8 15 0 8 -4
15 -10 15 -5 0 -10 4 -10 10 0 5 -14 33 -32 62 -17 29 -36 62 -42 73 -8 15
-416 720 -466 805 -66 113 -144 248 -172 300 l-36 66 580 -1 c572 0 580 0 589
20 5 11 13 27 19 35 13 19 138 235 159 275 9 16 18 32 21 35 3 3 13 19 22 35
14 26 67 119 133 234 24 43 115 197 132 226 7 11 16 27 20 35 4 8 33 59 65
113 32 54 58 100 58 103 0 2 16 28 35 58 19 30 35 58 35 61 0 3 12 24 27 48
49 77 83 146 76 149 -5 2 -636 3 -1404 3 l-1395 -1 -80 139 c-43 77 -94 165
-112 196 -18 31 -37 65 -42 76 -6 11 -14 27 -20 35 -26 39 -108 189 -105 192
6 6 4275 3 4275 -3z"/>
</g>
</svg>
